<svg width="1800" height="1120" viewBox="0 0 1800 1120" fill="none" xmlns="http://www.w3.org/2000/svg">
  <defs>
    <linearGradient id="bg" x1="180" y1="40" x2="1560" y2="1040" gradientUnits="userSpaceOnUse">
      <stop stop-color="#F4F1EC"/>
      <stop offset="1" stop-color="#ECE6DE"/>
    </linearGradient>
    <pattern id="topo" width="260" height="260" patternUnits="userSpaceOnUse">
      <path d="M12 52C58 16 138 12 232 44" stroke="#E3DDD5" stroke-width="3" stroke-linecap="round"/>
      <path d="M18 118C72 80 150 76 240 112" stroke="#E8E2DB" stroke-width="2.4" stroke-linecap="round"/>
      <path d="M-4 186C64 148 150 146 244 182" stroke="#E0D9D2" stroke-width="2.4" stroke-linecap="round"/>
    </pattern>
    <filter id="shadowPhone" x="-50%" y="-50%" width="200%" height="200%">
      <feDropShadow dx="0" dy="26" stdDeviation="34" flood-color="#30271F" flood-opacity="0.18"/>
    </filter>
    <filter id="shadowCard" x="-50%" y="-50%" width="200%" height="200%">
      <feDropShadow dx="0" dy="14" stdDeviation="18" flood-color="#30271F" flood-opacity="0.12"/>
    </filter>
    <linearGradient id="shellFill" x1="0" y1="0" x2="1" y2="1">
      <stop stop-color="#FFFEFC" stop-opacity="0.94"/>
      <stop offset="1" stop-color="#F4EEE7" stop-opacity="0.76"/>
    </linearGradient>
  </defs>

  <rect width="1800" height="1120" rx="34" fill="url(#bg)"/>
  <rect width="1800" height="1120" fill="url(#topo)" opacity="0.55"/>

  <text x="88" y="100" fill="#1F1B17" font-size="42" font-weight="700" font-family="Helvetica Neue, Arial, sans-serif">CurvyRide / Soft Monochrome Rally</text>
  <text x="88" y="138" fill="#6C655D" font-size="22" font-family="Helvetica Neue, Arial, sans-serif">Map-first planner. Floating controls. One copper accent.</text>
  <text x="88" y="168" fill="#6C655D" font-size="22" font-family="Helvetica Neue, Arial, sans-serif">Quiet, airy, and motorcycle-coded without literal bike graphics.</text>

  <g transform="translate(88 208)">
    <rect width="148" height="56" rx="22" fill="#FBFAF7" filter="url(#shadowCard)"/>
    <circle cx="30" cy="28" r="10" fill="#C58A4A"/>
    <text x="54" y="36" fill="#2A241E" font-size="20" font-weight="700" font-family="Helvetica Neue, Arial, sans-serif">Mood</text>

    <rect x="168" width="182" height="56" rx="22" fill="#FBFAF7" filter="url(#shadowCard)"/>
    <text x="198" y="36" fill="#2A241E" font-size="20" font-weight="700" font-family="Helvetica Neue, Arial, sans-serif">Airy + Precise</text>

    <rect x="372" width="190" height="56" rx="22" fill="#FBFAF7" filter="url(#shadowCard)"/>
    <text x="405" y="36" fill="#2A241E" font-size="20" font-weight="700" font-family="Helvetica Neue, Arial, sans-serif">Map Stays Open</text>
  </g>

  <g transform="translate(110 302)" filter="url(#shadowPhone)">
    <rect width="430" height="748" rx="62" fill="#181512"/>
    <rect x="16" y="16" width="398" height="716" rx="48" fill="#F2EDE6"/>
    <rect x="127" y="28" width="176" height="34" rx="17" fill="#181512"/>
    <rect x="36" y="90" width="358" height="574" rx="38" fill="#EEE8E2"/>
    <rect x="36" y="90" width="358" height="574" rx="38" fill="url(#topo)" opacity="0.82"/>

    <rect x="54" y="112" width="54" height="54" rx="20" fill="#FBFAF7" filter="url(#shadowCard)"/>
    <path d="M73 127H91" stroke="#2A241E" stroke-width="2.2" stroke-linecap="round"/>
    <path d="M73 134H87" stroke="#2A241E" stroke-width="2.2" stroke-linecap="round"/>
    <path d="M73 141H83" stroke="#2A241E" stroke-width="2.2" stroke-linecap="round"/>

    <rect x="122" y="112" width="170" height="54" rx="22" fill="#FBFAF7" filter="url(#shadowCard)"/>
    <circle cx="148" cy="139" r="7" stroke="#6F6C66" stroke-width="2"/>
    <path d="M153 144L159 150" stroke="#6F6C66" stroke-width="2" stroke-linecap="round"/>
    <text x="172" y="145" fill="#7C746C" font-size="16" font-family="Helvetica Neue, Arial, sans-serif">Search start point</text>

    <path d="M110 240C152 214 184 224 214 274C246 326 284 353 326 372" stroke="#C58A4A" stroke-width="10" stroke-linecap="round"/>
    <path d="M94 270C134 248 170 254 206 306C242 359 282 382 336 405" stroke="#2A241E" stroke-width="3.5" stroke-linecap="round" stroke-dasharray="1 16"/>
    <circle cx="108" cy="240" r="16" fill="#FBFAF7" stroke="#2A241E" stroke-width="6"/>
    <circle cx="326" cy="372" r="16" fill="#FBFAF7" stroke="#2A241E" stroke-width="6"/>

    <circle cx="352" cy="214" r="28" fill="#FBFAF7" filter="url(#shadowCard)"/>
    <path d="M352 202V226" stroke="#2A241E" stroke-width="2.2" stroke-linecap="round"/>
    <path d="M340 214H364" stroke="#2A241E" stroke-width="2.2" stroke-linecap="round"/>

    <circle cx="352" cy="286" r="30" fill="#2D2722" filter="url(#shadowCard)"/>
    <path d="M344 286L350 292L362 280" stroke="#FBFAF7" stroke-width="2.4" stroke-linecap="round" stroke-linejoin="round"/>

    <g transform="translate(60 540)" filter="url(#shadowCard)">
      <rect width="312" height="118" rx="28" fill="url(#shellFill)"/>
      <text x="24" y="34" fill="#25211C" font-size="18" font-weight="700" font-family="Helvetica Neue, Arial, sans-serif">Collapsed planner</text>
      <text x="24" y="60" fill="#6F6861" font-size="14" font-family="Helvetica Neue, Arial, sans-serif">Short summary. Side air remains.</text>
      <rect x="24" y="80" width="72" height="24" rx="12" fill="#EFE6DA"/>
      <rect x="104" y="80" width="58" height="24" rx="12" fill="#F4EFE8"/>
      <rect x="170" y="80" width="62" height="24" rx="12" fill="#F4EFE8"/>
      <text x="42" y="96" fill="#A56E36" font-size="12" font-weight="700" font-family="Helvetica Neue, Arial, sans-serif">90 min</text>
      <text x="121" y="96" fill="#5E5852" font-size="12" font-weight="600" font-family="Helvetica Neue, Arial, sans-serif">Loop</text>
      <text x="188" y="96" fill="#5E5852" font-size="12" font-weight="600" font-family="Helvetica Neue, Arial, sans-serif">Scenic</text>
      <circle cx="276" cy="92" r="16" fill="#C58A4A"/>
      <path d="M270 88L276 95L282 88" stroke="#FFF9F2" stroke-width="2" stroke-linecap="round" stroke-linejoin="round"/>
    </g>

    <text x="36" y="700" fill="#2A241E" font-size="26" font-weight="700" font-family="Helvetica Neue, Arial, sans-serif">01</text>
    <text x="82" y="700" fill="#2A241E" font-size="26" font-weight="700" font-family="Helvetica Neue, Arial, sans-serif">Collapsed / Summary</text>
  </g>

  <g transform="translate(686 302)" filter="url(#shadowPhone)">
    <rect width="430" height="748" rx="62" fill="#181512"/>
    <rect x="16" y="16" width="398" height="716" rx="48" fill="#F2EDE6"/>
    <rect x="127" y="28" width="176" height="34" rx="17" fill="#181512"/>
    <rect x="36" y="90" width="358" height="574" rx="38" fill="#EEE8E2"/>
    <rect x="36" y="90" width="358" height="574" rx="38" fill="url(#topo)" opacity="0.82"/>

    <rect x="52" y="110" width="54" height="54" rx="20" fill="#FBFAF7" filter="url(#shadowCard)"/>
    <path d="M71 125H89" stroke="#2A241E" stroke-width="2.2" stroke-linecap="round"/>
    <path d="M71 132H85" stroke="#2A241E" stroke-width="2.2" stroke-linecap="round"/>
    <path d="M71 139H81" stroke="#2A241E" stroke-width="2.2" stroke-linecap="round"/>

    <rect x="120" y="110" width="176" height="54" rx="22" fill="#FBFAF7" filter="url(#shadowCard)"/>
    <circle cx="146" cy="137" r="7" stroke="#6F6C66" stroke-width="2"/>
    <path d="M151 142L157 148" stroke="#6F6C66" stroke-width="2" stroke-linecap="round"/>
    <text x="170" y="143" fill="#7C746C" font-size="16" font-family="Helvetica Neue, Arial, sans-serif">Search start point</text>

    <path d="M110 218C162 194 196 236 226 286C255 335 292 360 334 384" stroke="#C58A4A" stroke-width="10" stroke-linecap="round"/>
    <circle cx="110" cy="218" r="16" fill="#FBFAF7" stroke="#2A241E" stroke-width="6"/>
    <circle cx="334" cy="384" r="16" fill="#FBFAF7" stroke="#2A241E" stroke-width="6"/>

    <g transform="translate(48 300)" filter="url(#shadowCard)">
      <rect width="334" height="336" rx="34" fill="url(#shellFill)"/>
      <rect x="130" y="18" width="74" height="6" rx="3" fill="#D0C7BD"/>
      <text x="22" y="50" fill="#25211C" font-size="22" font-weight="700" font-family="Helvetica Neue, Arial, sans-serif">Plan this ride</text>
      <text x="22" y="74" fill="#6F6861" font-size="14" font-family="Helvetica Neue, Arial, sans-serif">Shell floats above the map.</text>

      <rect x="20" y="94" width="294" height="66" rx="22" fill="#FBFAF7"/>
      <text x="38" y="121" fill="#736C65" font-size="12" font-weight="700" font-family="Helvetica Neue, Arial, sans-serif">START</text>
      <text x="38" y="145" fill="#25211C" font-size="18" font-weight="700" font-family="Helvetica Neue, Arial, sans-serif">Belgrade Waterfront</text>
      <circle cx="286" cy="127" r="16" fill="#F2ECE4"/>
      <path d="M278 127H294" stroke="#2A241E" stroke-width="2"/>
      <path d="M286 119V135" stroke="#2A241E" stroke-width="2"/>

      <rect x="20" y="176" width="140" height="102" rx="24" fill="#FBFAF7"/>
      <text x="38" y="202" fill="#736C65" font-size="12" font-weight="700" font-family="Helvetica Neue, Arial, sans-serif">TIME</text>
      <text x="38" y="242" fill="#25211C" font-size="40" font-weight="700" font-family="Helvetica Neue, Arial, sans-serif">90</text>
      <text x="96" y="242" fill="#736C65" font-size="17" font-weight="700" font-family="Helvetica Neue, Arial, sans-serif">min</text>
      <rect x="38" y="252" width="86" height="10" rx="5" fill="#E8DDD1"/>
      <rect x="38" y="252" width="54" height="10" rx="5" fill="#C58A4A"/>

      <rect x="174" y="176" width="140" height="102" rx="24" fill="#FBFAF7"/>
      <text x="192" y="202" fill="#736C65" font-size="12" font-weight="700" font-family="Helvetica Neue, Arial, sans-serif">MODE</text>
      <rect x="192" y="218" width="50" height="26" rx="13" fill="#EFE6DA"/>
      <rect x="248" y="218" width="50" height="26" rx="13" fill="#F4EFE8"/>
      <text x="207" y="235" fill="#A56E36" font-size="12" font-weight="700" font-family="Helvetica Neue, Arial, sans-serif">Loop</text>
      <text x="262" y="235" fill="#5E5852" font-size="12" font-weight="600" font-family="Helvetica Neue, Arial, sans-serif">Fast</text>
      <path d="M192 258C208 244 220 244 236 260C252 276 270 280 292 272" stroke="#2A241E" stroke-width="3"/>
      <path d="M192 258C208 244 220 244 236 260C252 276 270 280 292 272" stroke="#C58A4A" stroke-width="8" stroke-opacity="0.25"/>

      <rect x="20" y="292" width="294" height="18" rx="9" fill="#EDE7E0"/>
      <rect x="20" y="292" width="196" height="18" rx="9" fill="#C58A4A" fill-opacity="0.30"/>
    </g>

    <g transform="translate(62 594)" filter="url(#shadowCard)">
      <rect width="306" height="76" rx="26" fill="#FBFAF7"/>
      <rect x="14" y="14" width="112" height="48" rx="24" fill="#F3EEE8"/>
      <text x="34" y="44" fill="#5E5852" font-size="16" font-weight="700" font-family="Helvetica Neue, Arial, sans-serif">Surprise me</text>
      <rect x="136" y="14" width="156" height="48" rx="24" fill="#2B2520"/>
      <text x="174" y="44" fill="#FBFAF7" font-size="16" font-weight="700" font-family="Helvetica Neue, Arial, sans-serif">Generate route</text>
    </g>

    <text x="36" y="700" fill="#2A241E" font-size="26" font-weight="700" font-family="Helvetica Neue, Arial, sans-serif">02</text>
    <text x="82" y="700" fill="#2A241E" font-size="26" font-weight="700" font-family="Helvetica Neue, Arial, sans-serif">Medium / Planner Shell</text>
  </g>

  <g transform="translate(1262 302)" filter="url(#shadowPhone)">
    <rect width="430" height="748" rx="62" fill="#181512"/>
    <rect x="16" y="16" width="398" height="716" rx="48" fill="#F2EDE6"/>
    <rect x="127" y="28" width="176" height="34" rx="17" fill="#181512"/>
    <rect x="36" y="90" width="358" height="574" rx="38" fill="#EEE8E2"/>
    <rect x="36" y="90" width="358" height="574" rx="38" fill="url(#topo)" opacity="0.82"/>

    <path d="M98 206C150 166 188 194 224 246C260 298 304 320 348 344" stroke="#C58A4A" stroke-width="10" stroke-linecap="round"/>
    <path d="M98 206C150 166 188 194 224 246C260 298 304 320 348 344" stroke="#2A241E" stroke-width="3.5" stroke-linecap="round" stroke-dasharray="1 16"/>
    <circle cx="98" cy="206" r="16" fill="#FBFAF7" stroke="#2A241E" stroke-width="6"/>
    <circle cx="348" cy="344" r="16" fill="#FBFAF7" stroke="#2A241E" stroke-width="6"/>

    <g transform="translate(44 278)" filter="url(#shadowCard)">
      <rect width="342" height="378" rx="36" fill="url(#shellFill)"/>
      <rect x="134" y="18" width="74" height="6" rx="3" fill="#D0C7BD"/>
      <text x="24" y="52" fill="#25211C" font-size="22" font-weight="700" font-family="Helvetica Neue, Arial, sans-serif">Route ready</text>
      <text x="24" y="76" fill="#6F6861" font-size="14" font-family="Helvetica Neue, Arial, sans-serif">Large state still keeps a map crown.</text>

      <rect x="20" y="96" width="302" height="112" rx="26" fill="#FBFAF7" stroke="#EAD6BC" stroke-width="2"/>
      <text x="42" y="126" fill="#A56E36" font-size="12" font-weight="700" font-family="Helvetica Neue, Arial, sans-serif">RECOMMENDED</text>
      <text x="42" y="156" fill="#25211C" font-size="24" font-weight="700" font-family="Helvetica Neue, Arial, sans-serif">Copper Apex Loop</text>
      <text x="42" y="182" fill="#6F6861" font-size="14" font-family="Helvetica Neue, Arial, sans-serif">92 min • 128 km • 78% scenic</text>
      <circle cx="286" cy="150" r="16" fill="#C58A4A"/>
      <path d="M278 150L284 156L294 146" stroke="#FFF9F2" stroke-width="2.2" stroke-linecap="round" stroke-linejoin="round"/>

      <rect x="20" y="222" width="141" height="96" rx="24" fill="#FBFAF7"/>
      <text x="38" y="248" fill="#736C65" font-size="12" font-weight="700" font-family="Helvetica Neue, Arial, sans-serif">PACE</text>
      <text x="38" y="282" fill="#25211C" font-size="28" font-weight="700" font-family="Helvetica Neue, Arial, sans-serif">Relaxed</text>
      <text x="38" y="306" fill="#6F6861" font-size="14" font-family="Helvetica Neue, Arial, sans-serif">No highway bias</text>

      <rect x="181" y="222" width="141" height="96" rx="24" fill="#FBFAF7"/>
      <text x="199" y="248" fill="#736C65" font-size="12" font-weight="700" font-family="Helvetica Neue, Arial, sans-serif">ROAD FEEL</text>
      <text x="199" y="282" fill="#25211C" font-size="28" font-weight="700" font-family="Helvetica Neue, Arial, sans-serif">Curvy</text>
      <text x="199" y="306" fill="#6F6861" font-size="14" font-family="Helvetica Neue, Arial, sans-serif">Apex-heavy</text>

      <rect x="20" y="332" width="108" height="24" rx="12" fill="#EFE6DA"/>
      <rect x="138" y="332" width="84" height="24" rx="12" fill="#F4EFE8"/>
      <rect x="232" y="332" width="76" height="24" rx="12" fill="#F4EFE8"/>
      <text x="42" y="348" fill="#A56E36" font-size="12" font-weight="700" font-family="Helvetica Neue, Arial, sans-serif">Loop ride</text>
      <text x="160" y="348" fill="#5E5852" font-size="12" font-weight="600" font-family="Helvetica Neue, Arial, sans-serif">No tolls</text>
      <text x="251" y="348" fill="#5E5852" font-size="12" font-weight="600" font-family="Helvetica Neue, Arial, sans-serif">Saveable</text>
    </g>

    <g transform="translate(66 606)" filter="url(#shadowCard)">
      <rect width="298" height="72" rx="26" fill="#FBFAF7"/>
      <rect x="14" y="12" width="90" height="48" rx="24" fill="#F3EEE8"/>
      <text x="44" y="42" fill="#5E5852" font-size="16" font-weight="700" font-family="Helvetica Neue, Arial, sans-serif">Save</text>
      <rect x="114" y="12" width="170" height="48" rx="24" fill="#2B2520"/>
      <text x="164" y="42" fill="#FBFAF7" font-size="16" font-weight="700" font-family="Helvetica Neue, Arial, sans-serif">Start ride</text>
    </g>

    <text x="36" y="700" fill="#2A241E" font-size="26" font-weight="700" font-family="Helvetica Neue, Arial, sans-serif">03</text>
    <text x="82" y="700" fill="#2A241E" font-size="26" font-weight="700" font-family="Helvetica Neue, Arial, sans-serif">Large / Confirm</text>
  </g>

  <g transform="translate(88 1070)">
    <circle cx="10" cy="10" r="10" fill="#C58A4A"/>
    <text x="30" y="16" fill="#3A332C" font-size="18" font-weight="700" font-family="Helvetica Neue, Arial, sans-serif">Accent stays restrained.</text>
    <circle cx="480" cy="10" r="10" fill="#2B2520"/>
    <text x="500" y="16" fill="#3A332C" font-size="18" font-weight="700" font-family="Helvetica Neue, Arial, sans-serif">Motorcycle cue comes from route shape and compact metrics.</text>
  </g>
</svg>
